# xmcd
#
# Track frame offsets: 
#        150
#        19371
#        41094
#        64789
#        79423
#        99357
#        126588
#        151702
#        177619
#
# Disc length: 2595 seconds
#
# Revision: 0
# Processed by: cddbd v1.5.2PL0 Copyright (c) Steve Scherf et al.
# Submitted via: ExactAudioCopy v1.3
#
DISCID=790a2109
DTITLE=Kris Dollimore - No Ghosts In This House
DYEAR=2011
DGENRE=Blues
TTITLE0=Where I belong
TTITLE1=Worry
TTITLE2=No ghosts in this house
TTITLE3=Dias de los meurtos
TTITLE4=Hush
TTITLE5=Sahara
TTITLE6=Homage to Blind Joe death: I. West coast blues II. In Christ t
TTITLE6=here is no east or west
TTITLE7=Khamaj
TTITLE8=The last dance
EXTD=
EXTT0=
EXTT1=
EXTT2=
EXTT3=
EXTT4=
EXTT5=
EXTT6=
EXTT7=
EXTT8=
PLAYORDER=
